<?xml version="1.0" encoding="utf-8"?>
<!-- Generator: Adobe Illustrator 19.0.0, SVG Export Plug-In . SVG Version: 6.00 Build 0)  -->
<svg version="1.1" id="Camada_1" xmlns="http://www.w3.org/2000/svg" xmlns:xlink="http://www.w3.org/1999/xlink" x="0px" y="0px"
	 viewBox="0 0 933 182.5" style="enable-background:new 0 0 933 182.5;" xml:space="preserve">
<style type="text/css">
	.st0{fill:#F7931E;}
</style>
<g id="XMLID_1_">
	<path id="XMLID_2_" class="st0" d="M331.6,46.7h19.1l-39.8,91.6h-5.7l-26.6-62.7l-26.3,62.7h-5.8l-40.1-91.6h19.1l23.6,54.6
		l23-54.6h13.2l22.7,54.6L331.6,46.7z"/>
	<path id="XMLID_5_" class="st0" d="M360.4,8.8c2.9,0,5.4,1,7.5,3c2.1,2,3.1,4.5,3.1,7.4c0,2.9-1,5.3-3.1,7.4
		c-2.1,2.1-4.6,3.1-7.5,3.1c-2.7,0-5.2-1.1-7.2-3.2c-2.1-2.1-3.1-4.6-3.1-7.4c0-2.7,1-5.2,3.1-7.3C355.2,9.9,357.6,8.8,360.4,8.8z
		 M351.6,46.7h17.8v90h-17.8V46.7z"/>
	<path id="XMLID_8_" class="st0" d="M378.7,130.2V111c5,3.5,10.2,6.4,15.4,8.6c5.2,2.2,9.7,3.3,13.3,3.3c3.7,0,6.9-0.9,9.6-2.7
		c2.7-1.8,4-4,4-6.6c0-2.6-0.9-4.8-2.6-6.5c-1.7-1.7-5.5-4.2-11.2-7.5c-11.5-6.4-19-11.9-22.5-16.4c-3.6-4.5-5.3-9.5-5.3-14.8
		c0-6.9,2.7-12.6,8.1-16.9c5.4-4.4,12.3-6.6,20.8-6.6c8.8,0,17.8,2.5,27.1,7.4v17.6c-10.6-6.4-19.2-9.6-25.9-9.6
		c-3.5,0-6.2,0.7-8.4,2.2c-2.1,1.5-3.2,3.4-3.2,5.8c0,2.1,1,4.1,2.9,6c1.9,1.9,5.3,4.2,10.1,6.8l6.4,3.6c15,8.5,22.5,17.9,22.5,28.2
		c0,7.4-2.9,13.4-8.7,18.1c-5.8,4.7-13.2,7.1-22.3,7.1c-5.3,0-10.1-0.6-14.3-1.7C390.3,135.4,385,133.3,378.7,130.2z"/>
	<path id="XMLID_10_" class="st0" d="M524.8,93.2h-63.3c0.5,8.6,3.3,15.5,8.7,20.5c5.3,5.1,12.2,7.6,20.6,7.6
		c11.7,0,22.6-3.7,32.5-11v17.4c-5.5,3.7-10.9,6.3-16.3,7.8c-5.4,1.6-11.7,2.3-18.9,2.3c-9.9,0-17.9-2.1-24.1-6.2
		c-6.1-4.1-11-9.6-14.7-16.6c-3.7-6.9-5.5-15-5.5-24.1c0-13.7,3.9-24.8,11.6-33.4c7.8-8.6,17.8-12.9,30.2-12.9
		c11.9,0,21.5,4.2,28.6,12.5c7.1,8.3,10.7,19.5,10.7,33.6V93.2z M461.9,82.6h45.3c-0.5-7.1-2.6-12.6-6.4-16.4
		c-3.8-3.8-8.9-5.8-15.3-5.8c-6.4,0-11.6,1.9-15.7,5.8C465.8,70,463.2,75.5,461.9,82.6z"/>
	<path id="XMLID_13_" class="st0" d="M532.1,0h17.8v136.7h-17.8V0z M590.7,46.7h21.1l-38.4,44l46.2,46h-23.9l-45.1-45.9L590.7,46.7z
		"/>
	<path id="XMLID_19_" class="st0" d="M686.8,93.2h-63.3c0.5,8.6,3.3,15.5,8.7,20.5c5.3,5.1,12.2,7.6,20.6,7.6
		c11.7,0,22.6-3.7,32.5-11v17.4c-5.5,3.7-10.9,6.3-16.3,7.8c-5.4,1.6-11.7,2.3-18.9,2.3c-9.9,0-17.9-2.1-24.1-6.2
		c-6.1-4.1-11-9.6-14.7-16.6c-3.7-6.9-5.5-15-5.5-24.1c0-13.7,3.9-24.8,11.6-33.4c7.8-8.6,17.8-12.9,30.2-12.9
		c11.9,0,21.5,4.2,28.6,12.5c7.1,8.3,10.7,19.5,10.7,33.6V93.2z M623.9,82.6h45.3c-0.5-7.1-2.6-12.6-6.4-16.4
		c-3.8-3.8-8.9-5.8-15.3-5.8c-6.4,0-11.6,1.9-15.7,5.8C627.8,70,625.1,75.5,623.9,82.6z"/>
	<path id="XMLID_22_" class="st0" d="M770.7,93.2h-63.3c0.5,8.6,3.3,15.5,8.7,20.5c5.3,5.1,12.2,7.6,20.6,7.6
		c11.7,0,22.6-3.7,32.5-11v17.4c-5.5,3.7-10.9,6.3-16.3,7.8c-5.4,1.6-11.7,2.3-18.9,2.3c-9.9,0-17.9-2.1-24.1-6.2
		c-6.1-4.1-11-9.6-14.7-16.6c-3.7-6.9-5.5-15-5.5-24.1c0-13.7,3.9-24.8,11.6-33.4c7.8-8.6,17.8-12.9,30.2-12.9
		c11.9,0,21.5,4.2,28.6,12.5c7.1,8.3,10.7,19.5,10.7,33.6V93.2z M707.8,82.6h45.3c-0.5-7.1-2.6-12.6-6.4-16.4
		c-3.8-3.8-8.9-5.8-15.3-5.8c-6.4,0-11.6,1.9-15.7,5.8C711.7,70,709,75.5,707.8,82.6z"/>
	<path id="XMLID_25_" class="st0" d="M776.8,182.5V46.7H808c16,0,28.4,4,37.3,11.9c8.9,8,13.3,19.1,13.3,33.4
		c0,13.5-4.2,24.6-12.6,33.3c-8.4,8.7-19,13-32,13c-5.7,0-12.1-1.3-19-3.8v48.1H776.8z M807.6,63.3H795v55.4
		c5.5,2.8,11.2,4.2,17.2,4.2c8.3,0,15.1-2.9,20.4-8.7c5.3-5.8,8-13.3,8-22.4c0-5.9-1.3-11.1-3.8-15.6s-5.9-7.8-10.2-9.8
		C822.2,64.3,815.9,63.3,807.6,63.3z"/>
	<path id="XMLID_28_" class="st0" d="M885.2,46.7v20.6l1-1.6c8.6-13.9,17.2-20.8,25.8-20.8c6.7,0,13.7,3.4,21,10.2l-9.4,15.7
		c-6.2-5.9-11.9-8.8-17.2-8.8c-5.7,0-10.7,2.7-14.9,8.2s-6.3,12-6.3,19.5v47.1h-17.9v-90H885.2z"/>
</g>
<path id="XMLID_18_" class="st0" d="M171.1,52.7C163.3,22.5,136.5,0,103.7,0C77.8,0,55.3,13.8,43.2,35.4C19,39.7,0,60.5,0,86.4
	c0,28.5,23.3,51.8,51.8,51.8h112.3c24.2,0,43.2-19,43.2-43.2C207.3,73.4,191.8,55.3,171.1,52.7z M86.4,77.8V43.2h34.6v34.6h25.9
	l-43.2,43.2L60.5,77.8H86.4z"/>
</svg>
